<?xml version="1.0" standalone="no"?>
<!DOCTYPE svg PUBLIC "-//W3C//DTD SVG 20010904//EN"
 "http://www.w3.org/TR/2001/REC-SVG-20010904/DTD/svg10.dtd">
<svg version="1.0" xmlns="http://www.w3.org/2000/svg"
 width="512.000000pt" height="512.000000pt" viewBox="0 0 512.000000 512.000000"
 preserveAspectRatio="xMidYMid meet">

<g transform="translate(0.000000,512.000000) scale(0.100000,-0.100000)"
fill="#698cf0" stroke="none">
<path d="M943 5105 c-123 -33 -205 -101 -260 -213 l-38 -76 0 -2256 0 -2256
37 -76 c45 -91 103 -147 196 -191 l67 -32 1616 0 1615 0 76 38 c114 56 180
138 213 264 13 50 15 298 15 1914 0 1066 -4 1868 -9 1881 -11 28 -598 626
-839 856 l-171 162 -1233 -1 c-1030 0 -1242 -3 -1285 -14z m2417 -600 l0 -456
25 -24 24 -25 456 0 455 0 -2 -1832 -3 -1833 -22 -40 c-28 -52 -68 -89 -123
-114 -45 -20 -57 -21 -1604 -21 -1195 0 -1568 3 -1600 12 -55 16 -138 99 -154
154 -17 58 -18 4408 0 4465 20 70 91 136 168 160 14 4 555 8 1203 8 l1177 1 0
-455z m505 -5 l340 -340 -343 0 -342 0 0 340 c0 187 1 340 3 340 1 0 155 -153
342 -340z"/>
<path d="M1333 3670 c-47 -19 -57 -87 -18 -125 l24 -25 1228 0 c1341 0 1262
-3 1277 56 9 36 -9 79 -40 93 -31 14 -2437 15 -2471 1z"/>
<path d="M1315 3015 c-16 -15 -25 -36 -25 -55 0 -19 9 -40 25 -55 l24 -25
1228 0 c1341 0 1262 -3 1277 56 9 36 -9 79 -40 93 -18 8 -360 11 -1245 11
l-1220 0 -24 -25z"/>
<path d="M1315 2375 c-16 -15 -25 -36 -25 -55 0 -19 9 -40 25 -55 l24 -25
1228 0 c1341 0 1262 -3 1277 56 9 36 -9 79 -40 93 -18 8 -360 11 -1245 11
l-1220 0 -24 -25z"/>
<path d="M1315 1735 c-16 -15 -25 -36 -25 -55 0 -19 9 -40 25 -55 l24 -25
1226 0 c766 0 1233 4 1244 10 10 5 24 23 31 40 16 38 0 82 -36 99 -18 8 -360
11 -1245 11 l-1220 0 -24 -25z"/>
<path d="M1315 1095 c-16 -15 -25 -36 -25 -55 0 -19 9 -40 25 -55 l24 -25 908
0 c997 0 944 -3 958 59 7 32 -7 68 -34 88 -12 10 -226 12 -924 13 l-908 0 -24
-25z"/>
</g>
</svg>
